<mxfile host="app.diagrams.net" modified="2021-11-28T19:36:36.201Z" agent="5.0 (X11)" etag="ORZjc2iQ4K4dA9zZtuF1" version="15.7.3" type="github">
  <diagram id="03FeSEzAhy0l4YF-1P-M" name="Page-1">
    <mxGraphModel dx="1346" dy="793" grid="1" gridSize="10" guides="1" tooltips="1" connect="1" arrows="1" fold="1" page="1" pageScale="1" pageWidth="827" pageHeight="1169" math="0" shadow="0">
      <root>
        <mxCell id="0" />
        <mxCell id="1" parent="0" />
        <mxCell id="niS5kLpZ55jrkcJ2_Z6F-11" style="edgeStyle=orthogonalEdgeStyle;rounded=0;orthogonalLoop=1;jettySize=auto;html=1;" edge="1" parent="1" source="niS5kLpZ55jrkcJ2_Z6F-1" target="niS5kLpZ55jrkcJ2_Z6F-8">
          <mxGeometry relative="1" as="geometry" />
        </mxCell>
        <mxCell id="niS5kLpZ55jrkcJ2_Z6F-12" style="edgeStyle=orthogonalEdgeStyle;rounded=0;orthogonalLoop=1;jettySize=auto;html=1;entryX=0.392;entryY=-0.012;entryDx=0;entryDy=0;entryPerimeter=0;" edge="1" parent="1" source="niS5kLpZ55jrkcJ2_Z6F-1" target="niS5kLpZ55jrkcJ2_Z6F-5">
          <mxGeometry relative="1" as="geometry" />
        </mxCell>
        <mxCell id="niS5kLpZ55jrkcJ2_Z6F-13" style="edgeStyle=orthogonalEdgeStyle;rounded=0;orthogonalLoop=1;jettySize=auto;html=1;exitX=1;exitY=1;exitDx=0;exitDy=0;" edge="1" parent="1" source="niS5kLpZ55jrkcJ2_Z6F-1" target="niS5kLpZ55jrkcJ2_Z6F-4">
          <mxGeometry relative="1" as="geometry" />
        </mxCell>
        <mxCell id="niS5kLpZ55jrkcJ2_Z6F-1" value="a" style="ellipse;whiteSpace=wrap;html=1;fontSize=12;" vertex="1" parent="1">
          <mxGeometry x="30" y="20" width="40" height="40" as="geometry" />
        </mxCell>
        <mxCell id="niS5kLpZ55jrkcJ2_Z6F-19" style="edgeStyle=orthogonalEdgeStyle;rounded=0;orthogonalLoop=1;jettySize=auto;html=1;" edge="1" parent="1" source="niS5kLpZ55jrkcJ2_Z6F-2" target="niS5kLpZ55jrkcJ2_Z6F-18">
          <mxGeometry relative="1" as="geometry">
            <Array as="points">
              <mxPoint x="250" y="190" />
              <mxPoint x="250" y="190" />
            </Array>
          </mxGeometry>
        </mxCell>
        <mxCell id="niS5kLpZ55jrkcJ2_Z6F-20" style="edgeStyle=orthogonalEdgeStyle;rounded=0;orthogonalLoop=1;jettySize=auto;html=1;exitX=0.5;exitY=0;exitDx=0;exitDy=0;entryX=1;entryY=1;entryDx=0;entryDy=0;" edge="1" parent="1" source="niS5kLpZ55jrkcJ2_Z6F-2" target="niS5kLpZ55jrkcJ2_Z6F-7">
          <mxGeometry relative="1" as="geometry">
            <mxPoint x="350" y="140" as="sourcePoint" />
            <Array as="points">
              <mxPoint x="320" y="140" />
              <mxPoint x="204" y="140" />
            </Array>
          </mxGeometry>
        </mxCell>
        <mxCell id="niS5kLpZ55jrkcJ2_Z6F-21" style="edgeStyle=orthogonalEdgeStyle;rounded=0;orthogonalLoop=1;jettySize=auto;html=1;entryX=0;entryY=0;entryDx=0;entryDy=0;" edge="1" parent="1" source="niS5kLpZ55jrkcJ2_Z6F-2" target="niS5kLpZ55jrkcJ2_Z6F-6">
          <mxGeometry relative="1" as="geometry" />
        </mxCell>
        <mxCell id="niS5kLpZ55jrkcJ2_Z6F-2" value="b" style="ellipse;whiteSpace=wrap;html=1;" vertex="1" parent="1">
          <mxGeometry x="300" y="180" width="40" height="40" as="geometry" />
        </mxCell>
        <mxCell id="niS5kLpZ55jrkcJ2_Z6F-22" style="edgeStyle=orthogonalEdgeStyle;rounded=0;orthogonalLoop=1;jettySize=auto;html=1;" edge="1" parent="1" source="niS5kLpZ55jrkcJ2_Z6F-3" target="niS5kLpZ55jrkcJ2_Z6F-10">
          <mxGeometry relative="1" as="geometry" />
        </mxCell>
        <mxCell id="niS5kLpZ55jrkcJ2_Z6F-3" value="d" style="ellipse;whiteSpace=wrap;html=1;" vertex="1" parent="1">
          <mxGeometry x="30" y="280" width="40" height="40" as="geometry" />
        </mxCell>
        <mxCell id="niS5kLpZ55jrkcJ2_Z6F-16" style="edgeStyle=orthogonalEdgeStyle;rounded=0;orthogonalLoop=1;jettySize=auto;html=1;" edge="1" parent="1" source="niS5kLpZ55jrkcJ2_Z6F-4" target="niS5kLpZ55jrkcJ2_Z6F-7">
          <mxGeometry relative="1" as="geometry" />
        </mxCell>
        <mxCell id="niS5kLpZ55jrkcJ2_Z6F-17" style="edgeStyle=orthogonalEdgeStyle;rounded=0;orthogonalLoop=1;jettySize=auto;html=1;" edge="1" parent="1" source="niS5kLpZ55jrkcJ2_Z6F-4" target="niS5kLpZ55jrkcJ2_Z6F-18">
          <mxGeometry relative="1" as="geometry">
            <mxPoint x="380" y="390" as="targetPoint" />
          </mxGeometry>
        </mxCell>
        <mxCell id="niS5kLpZ55jrkcJ2_Z6F-4" value="c" style="ellipse;whiteSpace=wrap;html=1;" vertex="1" parent="1">
          <mxGeometry x="80" y="80" width="40" height="40" as="geometry" />
        </mxCell>
        <mxCell id="niS5kLpZ55jrkcJ2_Z6F-15" style="edgeStyle=orthogonalEdgeStyle;rounded=0;orthogonalLoop=1;jettySize=auto;html=1;" edge="1" parent="1" source="niS5kLpZ55jrkcJ2_Z6F-5" target="niS5kLpZ55jrkcJ2_Z6F-10">
          <mxGeometry relative="1" as="geometry">
            <mxPoint x="160" y="160" as="targetPoint" />
          </mxGeometry>
        </mxCell>
        <mxCell id="niS5kLpZ55jrkcJ2_Z6F-5" value="f" style="ellipse;whiteSpace=wrap;html=1;" vertex="1" parent="1">
          <mxGeometry x="30" y="100" width="40" height="40" as="geometry" />
        </mxCell>
        <mxCell id="niS5kLpZ55jrkcJ2_Z6F-25" style="edgeStyle=orthogonalEdgeStyle;rounded=0;orthogonalLoop=1;jettySize=auto;html=1;entryX=1;entryY=1;entryDx=0;entryDy=0;fontSize=12;" edge="1" parent="1" source="niS5kLpZ55jrkcJ2_Z6F-6" target="niS5kLpZ55jrkcJ2_Z6F-10">
          <mxGeometry relative="1" as="geometry" />
        </mxCell>
        <mxCell id="niS5kLpZ55jrkcJ2_Z6F-6" value="e" style="ellipse;whiteSpace=wrap;html=1;" vertex="1" parent="1">
          <mxGeometry x="130" y="220" width="40" height="40" as="geometry" />
        </mxCell>
        <mxCell id="niS5kLpZ55jrkcJ2_Z6F-7" value="g" style="ellipse;whiteSpace=wrap;html=1;" vertex="1" parent="1">
          <mxGeometry x="170" y="60" width="40" height="40" as="geometry" />
        </mxCell>
        <mxCell id="niS5kLpZ55jrkcJ2_Z6F-14" style="edgeStyle=orthogonalEdgeStyle;rounded=0;orthogonalLoop=1;jettySize=auto;html=1;" edge="1" parent="1" source="niS5kLpZ55jrkcJ2_Z6F-8" target="niS5kLpZ55jrkcJ2_Z6F-9">
          <mxGeometry relative="1" as="geometry" />
        </mxCell>
        <mxCell id="niS5kLpZ55jrkcJ2_Z6F-8" value="h" style="ellipse;whiteSpace=wrap;html=1;" vertex="1" parent="1">
          <mxGeometry x="110" y="20" width="40" height="40" as="geometry" />
        </mxCell>
        <mxCell id="niS5kLpZ55jrkcJ2_Z6F-77" style="edgeStyle=orthogonalEdgeStyle;rounded=0;orthogonalLoop=1;jettySize=auto;html=1;fontSize=12;entryX=1;entryY=0.5;entryDx=0;entryDy=0;" edge="1" parent="1" source="niS5kLpZ55jrkcJ2_Z6F-9" target="niS5kLpZ55jrkcJ2_Z6F-7">
          <mxGeometry relative="1" as="geometry">
            <mxPoint x="220" y="80" as="targetPoint" />
            <Array as="points">
              <mxPoint x="250" y="80" />
            </Array>
          </mxGeometry>
        </mxCell>
        <mxCell id="niS5kLpZ55jrkcJ2_Z6F-9" value="&lt;div&gt;i&lt;/div&gt;" style="ellipse;whiteSpace=wrap;html=1;" vertex="1" parent="1">
          <mxGeometry x="220" y="20" width="40" height="40" as="geometry" />
        </mxCell>
        <mxCell id="niS5kLpZ55jrkcJ2_Z6F-10" value="j" style="ellipse;whiteSpace=wrap;html=1;" vertex="1" parent="1">
          <mxGeometry x="50" y="170" width="40" height="40" as="geometry" />
        </mxCell>
        <mxCell id="niS5kLpZ55jrkcJ2_Z6F-18" value="k" style="ellipse;whiteSpace=wrap;html=1;" vertex="1" parent="1">
          <mxGeometry x="150" y="150" width="40" height="40" as="geometry" />
        </mxCell>
        <mxCell id="niS5kLpZ55jrkcJ2_Z6F-79" style="edgeStyle=orthogonalEdgeStyle;rounded=0;orthogonalLoop=1;jettySize=auto;html=1;fontSize=12;" edge="1" parent="1" source="niS5kLpZ55jrkcJ2_Z6F-53" target="niS5kLpZ55jrkcJ2_Z6F-64">
          <mxGeometry relative="1" as="geometry" />
        </mxCell>
        <mxCell id="niS5kLpZ55jrkcJ2_Z6F-53" value="a" style="ellipse;whiteSpace=wrap;html=1;fontSize=12;" vertex="1" parent="1">
          <mxGeometry x="20" y="450" width="40" height="40" as="geometry" />
        </mxCell>
        <mxCell id="niS5kLpZ55jrkcJ2_Z6F-82" style="edgeStyle=orthogonalEdgeStyle;rounded=0;orthogonalLoop=1;jettySize=auto;html=1;entryX=0.5;entryY=1;entryDx=0;entryDy=0;fontSize=12;" edge="1" parent="1" source="niS5kLpZ55jrkcJ2_Z6F-57" target="niS5kLpZ55jrkcJ2_Z6F-73">
          <mxGeometry relative="1" as="geometry">
            <Array as="points">
              <mxPoint x="40" y="605" />
            </Array>
          </mxGeometry>
        </mxCell>
        <mxCell id="niS5kLpZ55jrkcJ2_Z6F-84" style="edgeStyle=orthogonalEdgeStyle;rounded=0;orthogonalLoop=1;jettySize=auto;html=1;fontSize=12;" edge="1" parent="1" source="niS5kLpZ55jrkcJ2_Z6F-57" target="niS5kLpZ55jrkcJ2_Z6F-66">
          <mxGeometry relative="1" as="geometry" />
        </mxCell>
        <mxCell id="niS5kLpZ55jrkcJ2_Z6F-85" style="edgeStyle=orthogonalEdgeStyle;rounded=0;orthogonalLoop=1;jettySize=auto;html=1;entryX=0.5;entryY=1;entryDx=0;entryDy=0;fontSize=12;" edge="1" parent="1" source="niS5kLpZ55jrkcJ2_Z6F-57" target="niS5kLpZ55jrkcJ2_Z6F-68">
          <mxGeometry relative="1" as="geometry">
            <Array as="points">
              <mxPoint x="40" y="680" />
              <mxPoint x="340" y="680" />
            </Array>
          </mxGeometry>
        </mxCell>
        <mxCell id="niS5kLpZ55jrkcJ2_Z6F-57" value="b" style="ellipse;whiteSpace=wrap;html=1;" vertex="1" parent="1">
          <mxGeometry x="20" y="610" width="40" height="40" as="geometry" />
        </mxCell>
        <mxCell id="niS5kLpZ55jrkcJ2_Z6F-59" value="d" style="ellipse;whiteSpace=wrap;html=1;" vertex="1" parent="1">
          <mxGeometry x="20" y="530" width="40" height="40" as="geometry" />
        </mxCell>
        <mxCell id="niS5kLpZ55jrkcJ2_Z6F-62" value="c" style="ellipse;whiteSpace=wrap;html=1;" vertex="1" parent="1">
          <mxGeometry x="110" y="500" width="40" height="40" as="geometry" />
        </mxCell>
        <mxCell id="niS5kLpZ55jrkcJ2_Z6F-52" style="edgeStyle=orthogonalEdgeStyle;rounded=0;orthogonalLoop=1;jettySize=auto;html=1;exitX=1;exitY=1;exitDx=0;exitDy=0;" edge="1" parent="1" source="niS5kLpZ55jrkcJ2_Z6F-53" target="niS5kLpZ55jrkcJ2_Z6F-62">
          <mxGeometry x="104" y="330" as="geometry" />
        </mxCell>
        <mxCell id="niS5kLpZ55jrkcJ2_Z6F-64" value="f" style="ellipse;whiteSpace=wrap;html=1;" vertex="1" parent="1">
          <mxGeometry x="110" y="430" width="40" height="40" as="geometry" />
        </mxCell>
        <mxCell id="niS5kLpZ55jrkcJ2_Z6F-86" style="edgeStyle=orthogonalEdgeStyle;rounded=0;orthogonalLoop=1;jettySize=auto;html=1;entryX=0.5;entryY=1;entryDx=0;entryDy=0;fontSize=12;" edge="1" parent="1" source="niS5kLpZ55jrkcJ2_Z6F-66" target="niS5kLpZ55jrkcJ2_Z6F-72">
          <mxGeometry relative="1" as="geometry">
            <Array as="points">
              <mxPoint x="140" y="560" />
              <mxPoint x="240" y="560" />
            </Array>
          </mxGeometry>
        </mxCell>
        <mxCell id="niS5kLpZ55jrkcJ2_Z6F-66" value="e" style="ellipse;whiteSpace=wrap;html=1;" vertex="1" parent="1">
          <mxGeometry x="110" y="610" width="40" height="40" as="geometry" />
        </mxCell>
        <mxCell id="niS5kLpZ55jrkcJ2_Z6F-68" value="g" style="ellipse;whiteSpace=wrap;html=1;" vertex="1" parent="1">
          <mxGeometry x="320" y="470" width="40" height="40" as="geometry" />
        </mxCell>
        <mxCell id="niS5kLpZ55jrkcJ2_Z6F-60" style="edgeStyle=orthogonalEdgeStyle;rounded=0;orthogonalLoop=1;jettySize=auto;html=1;" edge="1" parent="1" source="niS5kLpZ55jrkcJ2_Z6F-62" target="niS5kLpZ55jrkcJ2_Z6F-68">
          <mxGeometry x="104" y="330" as="geometry">
            <Array as="points">
              <mxPoint x="290" y="530" />
              <mxPoint x="290" y="490" />
            </Array>
          </mxGeometry>
        </mxCell>
        <mxCell id="niS5kLpZ55jrkcJ2_Z6F-70" value="h" style="ellipse;whiteSpace=wrap;html=1;" vertex="1" parent="1">
          <mxGeometry x="110" y="380" width="40" height="40" as="geometry" />
        </mxCell>
        <mxCell id="niS5kLpZ55jrkcJ2_Z6F-50" style="edgeStyle=orthogonalEdgeStyle;rounded=0;orthogonalLoop=1;jettySize=auto;html=1;" edge="1" parent="1" source="niS5kLpZ55jrkcJ2_Z6F-53" target="niS5kLpZ55jrkcJ2_Z6F-70">
          <mxGeometry x="104" y="330" as="geometry">
            <Array as="points">
              <mxPoint x="40" y="360" />
            </Array>
          </mxGeometry>
        </mxCell>
        <mxCell id="niS5kLpZ55jrkcJ2_Z6F-88" style="edgeStyle=orthogonalEdgeStyle;rounded=0;orthogonalLoop=1;jettySize=auto;html=1;entryX=0.5;entryY=0;entryDx=0;entryDy=0;fontSize=12;" edge="1" parent="1" source="niS5kLpZ55jrkcJ2_Z6F-71" target="niS5kLpZ55jrkcJ2_Z6F-68">
          <mxGeometry relative="1" as="geometry" />
        </mxCell>
        <mxCell id="niS5kLpZ55jrkcJ2_Z6F-71" value="&lt;div&gt;i&lt;/div&gt;" style="ellipse;whiteSpace=wrap;html=1;" vertex="1" parent="1">
          <mxGeometry x="220" y="380" width="40" height="40" as="geometry" />
        </mxCell>
        <mxCell id="niS5kLpZ55jrkcJ2_Z6F-69" style="edgeStyle=orthogonalEdgeStyle;rounded=0;orthogonalLoop=1;jettySize=auto;html=1;" edge="1" parent="1" source="niS5kLpZ55jrkcJ2_Z6F-70" target="niS5kLpZ55jrkcJ2_Z6F-71">
          <mxGeometry x="104" y="330" as="geometry" />
        </mxCell>
        <mxCell id="niS5kLpZ55jrkcJ2_Z6F-72" value="j" style="ellipse;whiteSpace=wrap;html=1;" vertex="1" parent="1">
          <mxGeometry x="220" y="470" width="40" height="40" as="geometry" />
        </mxCell>
        <mxCell id="niS5kLpZ55jrkcJ2_Z6F-58" style="edgeStyle=orthogonalEdgeStyle;rounded=0;orthogonalLoop=1;jettySize=auto;html=1;" edge="1" parent="1" source="niS5kLpZ55jrkcJ2_Z6F-59" target="niS5kLpZ55jrkcJ2_Z6F-72">
          <mxGeometry x="104" y="330" as="geometry">
            <Array as="points">
              <mxPoint x="190" y="550" />
              <mxPoint x="190" y="490" />
            </Array>
          </mxGeometry>
        </mxCell>
        <mxCell id="niS5kLpZ55jrkcJ2_Z6F-63" style="edgeStyle=orthogonalEdgeStyle;rounded=0;orthogonalLoop=1;jettySize=auto;html=1;" edge="1" parent="1" source="niS5kLpZ55jrkcJ2_Z6F-64" target="niS5kLpZ55jrkcJ2_Z6F-72">
          <mxGeometry x="104" y="330" as="geometry">
            <mxPoint x="234" y="470" as="targetPoint" />
            <Array as="points">
              <mxPoint x="185" y="450" />
              <mxPoint x="185" y="470" />
            </Array>
          </mxGeometry>
        </mxCell>
        <mxCell id="niS5kLpZ55jrkcJ2_Z6F-73" value="k" style="ellipse;whiteSpace=wrap;html=1;" vertex="1" parent="1">
          <mxGeometry x="220" y="565" width="40" height="40" as="geometry" />
        </mxCell>
        <mxCell id="niS5kLpZ55jrkcJ2_Z6F-61" style="edgeStyle=orthogonalEdgeStyle;rounded=0;orthogonalLoop=1;jettySize=auto;html=1;" edge="1" parent="1" source="niS5kLpZ55jrkcJ2_Z6F-62" target="niS5kLpZ55jrkcJ2_Z6F-73">
          <mxGeometry x="104" y="330" as="geometry">
            <mxPoint x="454" y="700" as="targetPoint" />
            <Array as="points">
              <mxPoint x="130" y="585" />
            </Array>
          </mxGeometry>
        </mxCell>
      </root>
    </mxGraphModel>
  </diagram>
</mxfile>
